<svg width="557" height="530" viewBox="0 0 557 530" fill="none" xmlns="http://www.w3.org/2000/svg">
<g clip-path="url(#clip0_20_138)">
<path d="M282.682 184.785L237.712 345.215C237.712 345.215 126.395 335.796 118.294 419.369C118.294 419.369 147.923 515.102 320.413 405.897C320.413 405.897 247.389 538.481 131.046 529.587C-2.79862e-06 519.53 -46.9949 351.107 56.2588 269.635C102.954 232.82 174.14 199.909 282.719 184.785H282.682Z" fill="#F26A25" />
<path d="M274.281 345.215L319.25 184.785C319.25 184.785 430.568 194.205 438.669 110.631C438.669 110.631 409.039 14.8984 236.55 124.103C236.55 124.103 309.574 -8.48118 425.917 0.412823C557 10.4326 603.957 178.893 500.741 260.328C454.046 297.142 382.86 330.054 274.281 345.177V345.215Z" fill="#F26A25" />
</g>
<defs>
<clipPath id="clip0_20_138">
<rect width="557" height="530" fill="white"/>
</clipPath>
</defs>
</svg>
